<svg width="236" height="60" viewBox="0 0 236 60" fill="none" xmlns="http://www.w3.org/2000/svg">
<rect x="16.9465" y="1" width="202.647" height="57.2867" rx="28.6433" stroke="#BAC549" stroke-width="2"/>
<rect x="26.022" y="8.8335" width="185.117" height="41.6203" rx="20.8102" fill="#BAC549"/>
<path d="M107.937 27.57C107.937 26.73 108.197 26.03 108.717 25.47C109.237 24.91 109.947 24.63 110.847 24.63C111.747 24.63 112.457 24.91 112.977 25.47C113.497 26.03 113.757 26.73 113.757 27.57C113.757 28.41 113.497 29.11 112.977 29.67C112.457 30.23 111.747 30.51 110.847 30.51C109.947 30.51 109.237 30.23 108.717 29.67C108.197 29.11 107.937 28.41 107.937 27.57ZM115.086 27.57C115.086 26.73 115.346 26.03 115.866 25.47C116.386 24.91 117.096 24.63 117.996 24.63C118.896 24.63 119.606 24.91 120.126 25.47C120.646 26.03 120.906 26.73 120.906 27.57C120.906 28.41 120.646 29.11 120.126 29.67C119.606 30.23 118.896 30.51 117.996 30.51C117.096 30.51 116.386 30.23 115.866 29.67C115.346 29.11 115.086 28.41 115.086 27.57ZM122.234 27.57C122.234 26.73 122.494 26.03 123.014 25.47C123.534 24.91 124.244 24.63 125.144 24.63C126.044 24.63 126.754 24.91 127.274 25.47C127.794 26.03 128.054 26.73 128.054 27.57C128.054 28.41 127.794 29.11 127.274 29.67C126.754 30.23 126.044 30.51 125.144 30.51C124.244 30.51 123.534 30.23 123.014 29.67C122.494 29.11 122.234 28.41 122.234 27.57Z" fill="#FBFCFC"/>
</svg>
